P3
6 6
1000

1000 1000 0500  1000 0800 0500  1000 0600 0500  1000 0400 0500  1000 0200 0500  1000 0000 0500
0800 1000 0500  0800 0800 0500  0800 0600 0500  0800 0400 0500  0800 0200 0500  0800 0000 0500
0600 1000 0500  0600 0800 0500  0600 0600 0500  0600 0400 0500  0600 0200 0500  0600 0000 0500
0400 1000 0500  0400 0800 0500  0400 0600 0500  0400 0400 0500  0400 0200 0500  0400 0000 0500
0200 1000 0500  0200 0800 0500  0200 0600 0500  0200 0400 0500  0200 0200 0500  0200 0000 0500
0000 1000 0500  0000 0800 0500  0000 0600 0500  0000 0400 0500  0000 0200 0500  0000 0000 0500